<?xml version="1.0" encoding="UTF-8" standalone="no"?>
<!-- Created with Inkscape (http://www.inkscape.org/) -->

<svg
   width="69.99987mm"
   height="24.925859mm"
   viewBox="0 0 69.99987 24.925859"
   version="1.1"
   id="svg10769"
   inkscape:version="1.2.2 (1:1.2.2+202212051552+b0a8486541)"
   sodipodi:docname="logo-with-domain.svg"
   xmlns:inkscape="http://www.inkscape.org/namespaces/inkscape"
   xmlns:sodipodi="http://sodipodi.sourceforge.net/DTD/sodipodi-0.dtd"
   xmlns:xlink="http://www.w3.org/1999/xlink"
   xmlns="http://www.w3.org/2000/svg"
   xmlns:svg="http://www.w3.org/2000/svg">
  <sodipodi:namedview
     id="namedview10771"
     pagecolor="#ffffff"
     bordercolor="#000000"
     borderopacity="0.25"
     inkscape:showpageshadow="2"
     inkscape:pageopacity="0.0"
     inkscape:pagecheckerboard="0"
     inkscape:deskcolor="#d1d1d1"
     inkscape:document-units="mm"
     showgrid="false"
     inkscape:zoom="0.80265853"
     inkscape:cx="-13.704458"
     inkscape:cy="168.814"
     inkscape:window-width="1866"
     inkscape:window-height="1016"
     inkscape:window-x="1974"
     inkscape:window-y="27"
     inkscape:window-maximized="1"
     inkscape:current-layer="layer1" />
  <defs
     id="defs10766">
    <linearGradient
       inkscape:collect="always"
       xlink:href="#linearGradient8740"
       id="linearGradient6415"
       x1="-10.987616"
       y1="-43.433163"
       x2="94.845718"
       y2="-43.433163"
       gradientUnits="userSpaceOnUse"
       gradientTransform="matrix(0.66026702,0,0,0.66026702,59.937438,145.3678)" />
    <linearGradient
       id="linearGradient8740">
      <stop
         id="stop8738"
         offset="0"
         style="stop-color:#000000;stop-opacity:1;" />
      <stop
         id="stop8736"
         offset="0.18261695"
         style="stop-color:#3a86ff;stop-opacity:1" />
      <stop
         style="stop-color:#8338ec;stop-opacity:1"
         offset="0.38739288"
         id="stop8734" />
      <stop
         id="stop8732"
         offset="0.59400356"
         style="stop-color:#ff006e;stop-opacity:1" />
      <stop
         style="stop-color:#fb5607;stop-opacity:1"
         offset="0.74514398"
         id="stop8730" />
      <stop
         id="stop8728"
         offset="1"
         style="stop-color:#ffbe0b;stop-opacity:1" />
    </linearGradient>
  </defs>
  <g
     inkscape:label="Layer 1"
     inkscape:groupmode="layer"
     id="layer1"
     transform="translate(-52.682636,-104.22736)">
    <path
       id="path6394"
       style="font-size:12.165px;font-family:'Fredoka One';-inkscape-font-specification:'Fredoka One, Normal';letter-spacing:-0.446111px;fill:url(#linearGradient6415);fill-opacity:1;stroke-width:0.588493;stroke-linejoin:bevel"
       d="m 80.479765,104.2274 c -0.190765,0 -0.368752,0.1206 -0.445615,0.29445 -0.43912,0.88745 -0.878293,1.77499 -1.318059,2.66309 -0.994505,0.14388 -1.989659,0.2833 -2.984161,0.4306 -0.226734,0.036 -0.405507,0.25162 -0.397157,0.48178 -0.0018,0.15972 0.09102,0.30118 0.208132,0.40159 0.693473,0.67828 1.386713,1.35632 2.07997,2.03459 -0.169781,0.99087 -0.344413,1.98199 -0.512487,2.97392 -0.03597,0.22931 0.119429,0.46768 0.343591,0.52784 0.140452,0.0452 0.286703,0.0136 0.413879,-0.0635 0.867118,-0.45411 1.73366,-0.90933 2.600989,-1.36344 0.895801,0.4708 1.788135,0.94604 2.684582,1.41428 0.233366,0.11047 0.538667,-0.01 0.63566,-0.2484 0.08521,-0.17727 0.01023,-0.37204 -0.0133,-0.55445 -0.151374,-0.89238 -0.303798,-1.78539 -0.455168,-2.67776 0.720245,-0.70268 1.443891,-1.40104 2.162203,-2.10521 0.161435,-0.1623 0.178153,-0.44166 0.03683,-0.62236 -0.09378,-0.1321 -0.254981,-0.19124 -0.411491,-0.20302 -0.956814,-0.14045 -1.913368,-0.28106 -2.870189,-0.42172 -0.444906,-0.90159 -0.885095,-1.8045 -1.331719,-2.70438 -0.08199,-0.15736 -0.250077,-0.25623 -0.426498,-0.25794 z m -7.06e-4,1.57499 c 0.01326,0.0285 0.02769,0.057 0.04095,0.0853 0.32372,0.65579 0.643746,1.31466 0.97004,1.96874 0.07943,0.15629 0.246814,0.24929 0.418314,0.2617 0.72923,0.10705 1.458514,0.21402 2.187105,0.32107 -0.54617,0.53376 -1.096719,1.06328 -1.641185,1.59854 -0.122894,0.1246 -0.158824,0.31183 -0.117715,0.47905 0.122894,0.72687 0.246458,1.45294 0.370208,2.17959 -0.67656,-0.3554 -1.350348,-0.71614 -2.027763,-1.06898 -0.158224,-0.0803 -0.350516,-0.0516 -0.497818,0.0403 -0.649796,0.34042 -1.299658,0.68148 -1.950315,1.0219 0.12953,-0.75278 0.262654,-1.50529 0.388973,-2.25808 0.02674,-0.1732 -0.05455,-0.34519 -0.184933,-0.45653 -0.526905,-0.51512 -1.053885,-1.0303 -1.58079,-1.54564 0.755353,-0.10941 1.511303,-0.21485 2.265584,-0.32789 0.172354,-0.0276 0.312068,-0.15795 0.377374,-0.31596 0.326926,-0.66072 0.654184,-1.32235 0.981974,-1.98307 z m -8.351953,2.54639 -7.06e-4,0.002 c -0.536113,0 -0.986045,0.0547 -1.369931,0.18766 -0.38474,0.13295 -0.72178,0.3669 -0.90248,0.71482 l -0.0082,0.0167 c -0.122905,0.26442 -0.210238,0.51709 -0.251129,0.76395 v 0.0174 l -0.0048,0.0167 c -0.01838,0.20319 -0.02628,0.47832 -0.02628,0.8455 v 11.18325 c 0,1.7171 0.210954,3.00523 0.724376,3.90745 0.467597,0.83222 1.42948,1.27621 2.71495,1.44364 h 0.0041 c 0.784472,0.0961 1.434363,0.13884 1.963621,0.11294 0.530335,-0.0259 0.948669,-0.0952 1.293164,-0.33371 v -0.005 c 0.299522,-0.20918 0.450645,-0.5324 0.54592,-0.89702 0.09463,-0.36483 0.134775,-0.79456 0.134775,-1.31397 0,-0.48259 -0.03779,-0.88571 -0.134775,-1.23106 -0.09699,-0.34385 -0.260745,-0.65254 -0.555139,-0.84652 -0.182202,-0.12718 -0.359466,-0.22318 -0.581063,-0.26 -0.220098,-0.0561 -0.42423,-0.0611 -0.750309,-0.0611 -0.104698,0 -0.156634,-0.008 -0.182542,-0.0126 -0.01182,-0.0811 -0.07779,-0.37051 -0.07779,-0.78544 V 110.9341 c 0,-0.35798 -0.01168,-0.6297 -0.04675,-0.86222 0,-0.004 -0.0041,-0.007 -0.0041,-0.009 -0.02526,-0.27684 -0.119528,-0.54749 -0.265116,-0.82026 l -0.0041,-0.004 c -0.186552,-0.33636 -0.512166,-0.56941 -0.888562,-0.70322 -0.376174,-0.13381 -0.813001,-0.18698 -1.327274,-0.18698 z m -10.118042,0.47018 c -2.497285,0 -4.708385,0.89671 -6.543239,2.64978 -1.84406,1.74536 -2.783189,3.97988 -2.783189,6.58657 0,2.60434 0.918091,4.88203 2.722114,6.73465 1.801454,1.834 3.981751,2.77978 6.439857,2.77978 2.717167,0 4.844724,-0.71329 6.274712,-2.19359 0.501854,-0.52027 0.797392,-1.13347 0.797392,-1.77834 v -5.16922 c 0,-0.61726 -0.07388,-1.1147 -0.28627,-1.5262 -0.152225,-0.32715 -0.438042,-0.56821 -0.775896,-0.71209 -0.339563,-0.14367 -0.735118,-0.21225 -1.196937,-0.22895 h -4.154163 c -0.519412,0 -0.968655,0.0745 -1.349117,0.26444 -0.320296,0.16057 -0.543621,0.47009 -0.650672,0.81137 l -0.0037,0.0123 -0.0044,0.0133 c -0.07858,0.3143 -0.108844,0.6843 -0.108844,1.13176 0,0.43314 0.03113,0.79458 0.108844,1.10652 v 0.01 c 0.09121,0.34192 0.318721,0.64656 0.619962,0.83219 0.352842,0.21753 0.764201,0.26 1.292819,0.26 h 1.361398 v 1.67018 c -0.554528,0.18734 -1.138108,0.32961 -1.829871,0.32961 -1.058733,0 -1.979506,-0.39906 -2.844264,-1.26211 l -0.0044,-0.005 c -0.855552,-0.87225 -1.266203,-1.87505 -1.266203,-3.10528 0,-1.25121 0.398363,-2.18191 1.22287,-2.92206 h 0.0041 c 0.846347,-0.7744 1.76645,-1.14064 2.840171,-1.14064 0.829005,0 1.502095,0.19118 2.072463,0.57186 l 0.0044,0.005 h 0.0041 c 0.686622,0.44148 1.168167,0.71516 1.700212,0.71516 0.773547,0 1.419211,-0.56626 2.068367,-1.44772 v -0.005 c 0.394803,-0.54874 0.632932,-1.07061 0.632932,-1.60501 0,-0.56887 -0.330339,-1.08035 -0.832195,-1.45182 -1.716238,-1.27455 -3.576172,-1.93018 -5.53328,-1.93018 z m 10.116313,0.52204 h 0.0011 c 0.441692,0 0.778648,0.0516 0.997677,0.13034 0.219241,0.0769 0.306931,0.15993 0.355533,0.24771 0.101057,0.19077 0.143828,0.34215 0.152174,0.43742 l 0.0041,0.0167 v 0.0218 c 0.02247,0.13788 0.04368,0.39608 0.04368,0.74143 v 10.88027 c 0,0.59135 -0.02117,0.95415 0.208132,1.33547 l 0.0085,0.008 0.0041,0.009 c 0.23423,0.3522 0.635614,0.43401 1.022925,0.43401 0.313658,0 0.536218,0.03 0.521017,0.0259 l 0.03415,0.009 0.03105,0.004 c -0.01669,-0.002 0.06444,0.0195 0.185614,0.10475 l 0.0082,0.004 0.0092,0.005 c 0.01584,0.01 0.084,0.08 0.143308,0.29002 0.05952,0.21067 0.09929,0.54116 0.09929,0.96765 0,0.4676 -0.03741,0.8283 -0.09929,1.0666 -0.06102,0.23423 -0.139745,0.32195 -0.155592,0.33438 0,0 -0.0043,-0.001 -0.0052,0 -0.06509,0.0435 -0.332676,0.13891 -0.7718,0.15967 -0.440838,0.0218 -1.045534,-0.0117 -1.795748,-0.10372 v 0.005 c -1.126606,-0.1473 -1.727867,-0.50281 -1.981362,-0.95434 -0.362053,-0.63332 -0.59369,-1.7882 -0.59369,-3.42159 v -11.1833 c 0,-0.34128 0.0094,-0.58374 0.02184,-0.72847 0.02187,-0.12289 0.0719,-0.2893 0.159681,-0.48177 l 0.0041,-0.005 c 0.03918,-0.0737 0.11534,-0.15311 0.337788,-0.22997 0.226734,-0.0788 0.583011,-0.13034 1.049539,-0.13034 z m -10.116313,0.46506 v 7e-4 c 1.739581,0 3.369822,0.56546 4.943685,1.73467 0.343847,0.25499 0.438444,0.44476 0.438444,0.65886 0,0.21817 -0.125673,0.57372 -0.451753,1.02804 -0.569509,0.77099 -1.037968,1.04033 -1.2662,1.04033 -0.06274,0 -0.535306,-0.1532 -1.157703,-0.55036 l -0.0092,-0.005 c -0.743362,-0.49345 -1.628828,-0.7366 -2.613269,-0.7366 -1.305379,0 -2.50335,0.481 -3.504492,1.39586 -1.024477,0.91999 -1.548718,2.18112 -1.548718,3.65564 0,1.46189 0.531888,2.76495 1.553154,3.8027 1.01356,1.01378 2.226219,1.55657 3.5468,1.55657 0.915714,0 1.754701,-0.14967 2.51091,-0.45926 l 0.308446,-0.12556 v -3.38716 h -2.350853 c -0.443405,0 -0.722065,-0.0836 -0.776236,-0.11704 -0.102125,-0.0627 -0.144705,-0.11869 -0.178107,-0.23816 v -0.005 c -0.04689,-0.18885 -0.07779,-0.48278 -0.07779,-0.86325 0,-0.39224 0.03261,-0.68733 0.07779,-0.87553 0.04667,-0.13702 0.08706,-0.18136 0.13887,-0.20812 0.183913,-0.0912 0.489958,-0.16071 0.91067,-0.16071 h 4.115926 c 0.383885,0.0141 0.671975,0.0726 0.849251,0.14706 0.177277,0.0754 0.236995,0.14815 0.272963,0.22587 l 0.0048,0.009 0.0044,0.0133 c 0.09527,0.1807 0.178106,0.54874 0.178106,1.084 v 5.16854 c 0,0.35797 -0.140576,0.70418 -0.515898,1.09321 -1.201968,1.24435 -3.021896,1.89094 -5.568422,1.89094 -2.210391,0 -4.087385,-0.80643 -5.732544,-2.48157 -1.64259,-1.68691 -2.445398,-3.66731 -2.445398,-6.04406 0,-2.37439 0.814574,-4.29549 2.479859,-5.87107 1.673421,-1.59912 3.596913,-2.37596 5.862543,-2.37681 z m 34.626251,0.16309 c -0.532684,0.001 -0.976161,0.0516 -1.356618,0.17368 -0.379603,0.12225 -0.717694,0.33228 -0.905894,0.66841 v 0.004 l -0.0048,0.005 c -0.128033,0.23766 -0.216873,0.46816 -0.260336,0.70732 l -0.0048,0.0218 v 0.0218 c -0.01845,0.20318 -0.02494,0.47835 -0.02494,0.84618 v 1.84761 l -1.432023,-0.0174 h -0.0041 c -0.503565,0 -1.047919,0.0126 -1.595804,0.0218 v -1.73467 c 0,-0.57209 -0.03009,-0.99625 -0.138871,-1.34503 l -0.01019,-0.0167 c -0.146446,-0.41728 -0.475665,-0.7484 -0.887812,-0.9366 -0.412358,-0.18819 -0.901551,-0.26511 -1.478773,-0.26511 -0.533542,0 -0.97941,0.0511 -1.357302,0.17401 -0.374679,0.12204 -0.701139,0.33875 -0.880985,0.67661 -0.140448,0.23251 -0.249799,0.46319 -0.294115,0.70662 v 0.0218 l -0.0052,0.0215 c -0.01845,0.20404 -0.0266,0.47852 -0.0266,0.8455 v 1.86126 c -1.420138,-0.0552 -1.83582,0.6679 -2.022305,1.28087 -0.103837,0.37468 -0.134772,0.85341 -0.134772,1.51391 0,0.6984 0.09955,1.25632 0.442535,1.6736 l 0.0048,0.008 0.0044,0.005 c 0.310226,0.35221 0.756656,0.56811 1.219112,0.56811 0.169785,0 0.325498,-0.0245 0.489285,-0.0352 v 2.94867 c 0,1.68776 0.479535,3.05687 1.474678,3.98115 0.984441,0.914 2.350209,1.35219 4.002645,1.35219 0.352199,0 0.61703,-0.007 0.81957,-0.0259 h 0.01672 l 0.01774,-0.005 c 0.246645,-0.0411 0.498387,-0.12824 0.76259,-0.25113 l 0.0082,-0.005 h 0.0052 c 0.351123,-0.17556 0.598254,-0.50581 0.736998,-0.88883 0.139802,-0.38303 0.195506,-0.83214 0.195506,-1.36141 0,-0.45838 -0.0482,-0.84918 -0.164461,-1.18874 -0.116255,-0.33871 -0.321296,-0.64038 -0.629176,-0.81446 -0.260989,-0.14879 -0.534571,-0.24326 -0.815471,-0.26852 -0.237659,-0.0383 -0.5244,-0.0566 -0.906578,-0.0566 -0.264203,0 -0.323621,-0.0505 -0.346319,-0.0781 -0.03172,-0.0542 -0.100312,-0.26077 -0.100312,-0.62475 v -2.72791 l 1.63504,0.0693 h 0.0085 c 0.37725,0 0.887229,-0.0356 1.388011,-0.0693 v 2.96232 c 0,1.68777 0.479535,3.05692 1.474679,3.98013 0.98444,0.91486 2.346071,1.35287 3.997871,1.35287 0.352196,0 0.617242,-0.006 0.819572,-0.0256 h 0.0218 l 0.0174,-0.005 c 0.24665,-0.0411 0.49839,-0.12788 0.76259,-0.25078 l 0.005,-0.005 h 0.004 c 0.35219,-0.17664 0.59804,-0.50615 0.73699,-0.88918 0.1396,-0.38217 0.19551,-0.83111 0.19551,-1.36037 0,-0.46011 -0.0469,-0.85669 -0.16889,-1.19796 -0.12226,-0.33957 -0.33959,-0.63563 -0.65068,-0.80627 -0.246,-0.14794 -0.51442,-0.24326 -0.78954,-0.26852 -0.23743,-0.0383 -0.525089,-0.0566 -0.905546,-0.0566 -0.267631,0 -0.325381,-0.0511 -0.347006,-0.0785 -0.03189,-0.0544 -0.09963,-0.26098 -0.09963,-0.62474 v -2.71904 l 1.018492,0.0611 h 0.017 c 0.36783,0 0.63771,-0.004 0.84175,-0.0218 l 0.0167,-0.005 h 0.0218 c 0.24751,-0.042 0.49511,-0.12805 0.75952,-0.2518 l 0.009,-0.005 0.0133,-0.005 c 0.34556,-0.17899 0.57709,-0.5128 0.71004,-0.89326 0.13382,-0.38132 0.18733,-0.82783 0.18733,-1.35731 0,-0.53526 -0.0535,-0.98366 -0.18733,-1.36583 -0.13213,-0.37783 -0.36727,-0.70722 -0.71519,-0.87957 -0.25585,-0.14387 -0.51781,-0.24177 -0.78886,-0.26511 h -0.005 c -0.22417,-0.0368 -0.48685,-0.0519 -0.84141,-0.0519 -0.248352,0 -0.671823,0.0365 -1.058065,0.0641 v -1.77698 c 0,-0.56951 -0.03334,-0.99438 -0.164801,-1.35321 0,-0.002 -0.0028,-0.002 -0.0048,-0.004 -0.137241,-0.4175 -0.45926,-0.75267 -0.867339,-0.94172 C 97.705,110.04518 97.214054,109.9698 96.63704,109.9698 Z m -8.106629,0.99256 c 0.487507,0 0.848716,0.0721 1.071376,0.17401 0.219029,0.10042 0.302895,0.19991 0.359632,0.35963 0.04774,0.15458 0.09519,0.52006 0.09519,1.04033 v 2.73644 l 0.503615,-0.008 c 0.730942,-0.0158 1.424185,-0.0259 2.076556,-0.0259 l 2.424589,0.03 v -2.8487 c 0,-0.33699 0.0092,-0.5752 0.02184,-0.71993 0.01926,-0.10449 0.06423,-0.23982 0.151147,-0.40297 l 0.0052,-0.005 c 0.03253,-0.0561 0.110201,-0.13533 0.337788,-0.20813 0.230805,-0.0737 0.589654,-0.12147 1.05875,-0.12147 h 0.0011 c 0.488368,0 0.846346,0.0736 1.062168,0.17401 0.216669,0.0996 0.300306,0.19565 0.352118,0.35452 v 0.009 l 0.0041,0.0119 c 0.05267,0.13959 0.112931,0.50355 0.112931,1.02361 V 115.38 l 0.537739,-0.0525 c 0.681701,-0.0619 1.190064,-0.0911 1.504365,-0.0911 0.3462,0 0.59806,0.0184 0.71174,0.0386 l 0.0218,0.005 0.0252,0.005 c 0.0961,0.008 0.23402,0.0477 0.40809,0.14706 l 0.0133,0.009 0.0167,0.009 c 0.0685,0.0325 0.14407,0.0996 0.22178,0.32142 0.0771,0.22074 0.13375,0.57359 0.13375,1.04033 0,0.45753 -0.0558,0.80542 -0.13375,1.02702 -0.0769,0.21902 -0.15391,0.29822 -0.23099,0.33847 0,0 -0.002,0.004 -0.004,0.005 -0.19248,0.0886 -0.35785,0.13976 -0.48075,0.16139 -0.1381,0.0109 -0.37405,0.021 -0.69435,0.0218 l -2.051643,-0.12624 v 3.76829 c 0,0.47188 0.04966,0.85736 0.269547,1.18772 l 0.0082,0.0133 0.0092,0.009 c 0.261842,0.34877 0.697435,0.48177 1.144048,0.48177 0.362045,0 0.632518,0.0161 0.768048,0.0386 l 0.0174,0.005 h 0.0215 c 0.11626,0.008 0.24184,0.0509 0.38999,0.14296 l 0.0133,0.004 0.0137,0.009 c 0.0619,0.0336 0.1253,0.0945 0.19039,0.27671 0.0662,0.18327 0.11226,0.47765 0.11226,0.86325 0,0.45732 -0.0535,0.80372 -0.13375,1.0236 -0.0803,0.21989 -0.16489,0.29945 -0.25181,0.34292 -0.19484,0.0895 -0.36063,0.13874 -0.48587,0.16035 -0.14474,0.0118 -0.378992,0.0218 -0.701861,0.0218 -1.481155,0 -2.561032,-0.37385 -3.331157,-1.0881 -0.759414,-0.70504 -1.157354,-1.74937 -1.157354,-3.25643 v -4.01627 l -0.53364,0.0437 c -0.734374,0.061 -1.338263,0.0943 -1.816562,0.0952 l -2.653877,-0.11703 v 3.75937 c 0,0.47167 0.05287,0.85805 0.272962,1.18841 l 0.0048,0.0133 0.0092,0.009 c 0.261849,0.34941 0.702726,0.48178 1.148489,0.48178 0.362261,0 0.627228,0.0157 0.763609,0.0382 l 0.02148,0.005 h 0.02113 c 0.117976,0.008 0.260132,0.0552 0.42992,0.15218 0.05267,0.0291 0.118611,0.0919 0.182199,0.27774 0.06359,0.18477 0.108504,0.47849 0.108504,0.86666 0,0.45646 -0.05415,0.80351 -0.134433,1.0236 -0.08029,0.22074 -0.16467,0.2991 -0.251806,0.34257 -0.193124,0.0886 -0.356962,0.13806 -0.481781,0.15968 -0.143662,0.0126 -0.379695,0.0229 -0.706632,0.0229 -1.481155,0 -2.559967,-0.37299 -3.329456,-1.0881 C 87.35606,124.79584 86.9571,123.75116 86.9571,122.2441 v -4.05053 l -0.568445,0.0829 c -0.286896,0.0426 -0.588193,0.0641 -0.909983,0.0641 -0.192483,0 -0.312822,-0.0519 -0.468475,-0.22486 -0.09442,-0.11881 -0.216665,-0.46005 -0.216665,-1.04134 0,-0.62218 0.04697,-1.0635 0.09964,-1.25256 l 0.0052,-0.005 v -0.005 c 0.06273,-0.23744 0.141298,-0.35115 0.172985,-0.38113 0.153938,-0.12225 0.333745,-0.19073 0.611434,-0.19073 l 1.274392,0.16037 v -2.97903 c 0,-0.337 0.01027,-0.57525 0.02184,-0.72062 0.0176,-0.0912 0.06524,-0.22259 0.164797,-0.38488 l 0.0092,-0.0136 0.0082,-0.0174 c 0.02508,-0.0484 0.09149,-0.12612 0.316297,-0.19892 0.225019,-0.0737 0.584535,-0.12147 1.053634,-0.12147 z m 21.833204,3.12712 c -0.48172,0 -0.97829,0.16808 -1.50947,0.45926 -0.39973,0.21903 -0.62953,0.38948 -0.85369,0.57253 -0.0285,-0.0492 -0.0202,-0.10937 -0.0519,-0.15626 -0.40144,-0.60634 -1.16942,-0.75918 -2.168,-0.75918 -0.53611,0 -0.98608,0.049 -1.37061,0.1822 -0.38388,0.13296 -0.72183,0.36691 -0.90146,0.71483 v 0.0102 c -0.12717,0.2535 -0.21927,0.50109 -0.26102,0.75031 v 0.0174 l -0.004,0.0167 c -0.0193,0.20339 -0.0266,0.47865 -0.0266,0.84584 v 8.94632 l 0.005,0.0164 c 0.0368,0.53933 0.21898,1.02454 0.58959,1.34911 l 0.008,0.005 0.005,0.008 c 0.47168,0.38217 1.12322,0.50771 1.9336,0.50771 0.52691,0 0.97189,-0.0509 1.35321,-0.17811 0.38046,-0.12718 0.71431,-0.34713 0.90657,-0.6807 l 0.004,-0.009 0.005,-0.005 c 0.14388,-0.26849 0.23921,-0.52273 0.26512,-0.78886 0.0368,-0.23401 0.0519,-0.51159 0.0519,-0.87621 v -4.93447 c 0,-0.27941 0.092,-0.47259 0.35553,-0.69332 0.3036,-0.24022 0.58353,-0.34291 0.88884,-0.34291 0.37467,0 0.63817,0.0625 0.78954,0.13784 h 0.005 l 0.008,0.005 c 0.32693,0.15394 0.67758,0.23407 1.03214,0.23407 0.73779,0 1.38097,-0.45914 1.73466,-1.16589 0.32287,-0.64466 0.49919,-1.26617 0.49919,-1.86501 0,-0.55945 -0.11457,-1.04045 -0.43401,-1.39586 -0.24601,-0.30188 -0.56981,-0.53271 -0.94513,-0.65067 -0.31045,-0.0978 -0.6021,-0.1621 -0.88065,-0.19893 -0.29439,-0.0552 -0.63562,-0.0788 -1.03213,-0.0788 z m -27.368869,0.34393 c -0.250077,0.003 -0.479404,0.24466 -0.508737,0.49816 -0.01581,0.33529 -0.04416,0.68861 -0.243276,0.9738 -0.434841,0.6438 -1.122225,1.04608 -1.76367,1.45351 -0.670782,-0.42906 -1.409316,-0.84982 -1.823388,-1.55656 -0.169567,-0.27769 -0.153896,-0.60898 -0.194141,-0.9175 -0.05931,-0.24343 -0.27232,-0.47986 -0.542519,-0.44731 -0.377243,0.0552 -0.520288,0.49585 -0.466768,0.82878 0.04861,1.00028 0.647224,1.89738 1.431689,2.48873 0.137241,0.11133 0.281785,0.21163 0.42309,0.31868 -0.702465,0.47103 -1.380765,1.06315 -1.678372,1.87866 -0.372322,0.9442 -0.154538,2.0622 0.492696,2.83403 0.321155,0.40572 0.751692,0.72616 1.185676,1.02975 -0.589418,0.41643 -1.15817,0.90235 -1.490024,1.5378 -0.263564,0.50271 -0.426794,1.08801 -0.343934,1.65688 0.06016,0.31344 0.436803,0.57784 0.731192,0.37123 0.268485,-0.16807 0.288339,-0.50351 0.294118,-0.78784 0.07023,-0.65065 0.605518,-1.11038 1.095601,-1.48014 0.283686,-0.21152 0.58577,-0.3956 0.885084,-0.58379 0.670782,0.42906 1.408966,0.8505 1.823039,1.55725 0.169785,0.27769 0.153896,0.60897 0.194148,0.91749 0.05695,0.31623 0.434752,0.58278 0.730856,0.37874 0.348771,-0.23252 0.302052,-0.70167 0.245322,-1.06114 -0.104694,-0.65666 -0.433338,-1.25552 -0.881669,-1.72206 -0.281757,-0.29695 -0.60965,-0.54441 -0.940012,-0.78442 0.399729,-0.2794 0.801067,-0.57878 1.100374,-0.92671 0.675069,-0.74443 0.948605,-1.8458 0.623383,-2.80604 -0.265275,-0.85641 -0.951166,-1.49131 -1.676333,-1.97625 -0.09013,-0.0878 0.206647,-0.17954 0.270235,-0.26818 0.765196,-0.56031 1.393589,-1.38027 1.513918,-2.34202 0.05437,-0.34706 0.07017,-0.80114 -0.277739,-1.00518 -0.06873,-0.0409 -0.140472,-0.0592 -0.209839,-0.0584 z m 27.368869,0.64044 c 0.35541,0 0.64333,0.0259 0.84994,0.0645 h 0.0133 l 0.0133,0.005 c 0.2141,0.0267 0.46273,0.0832 0.73699,0.16924 0.21411,0.0677 0.3613,0.16868 0.48997,0.32926 l 0.0266,0.0269 c 0.0762,0.0812 0.17333,0.31099 0.17333,0.74519 0,0.4038 -0.122,0.87715 -0.39477,1.42247 -0.24172,0.48344 -0.45919,0.62065 -0.84993,0.62065 -0.20554,0 -0.40058,-0.0412 -0.60291,-0.13477 -0.34963,-0.17578 -0.75939,-0.23919 -1.23106,-0.23919 -0.53932,0 -1.05774,0.19833 -1.50436,0.55138 l -0.0102,0.01 c -0.44833,0.37061 -0.71925,0.89832 -0.71925,1.46205 V 125.04 c 0,0.3462 -0.0159,0.60355 -0.0392,0.74144 l -0.004,0.0167 v 0.0177 c -0.007,0.0713 -0.0519,0.22177 -0.14808,0.4074 h -0.004 c -0.0435,0.0737 -0.13208,0.16318 -0.36031,0.23919 -0.22909,0.0762 -0.58112,0.12522 -1.04101,0.12522 -0.68919,0 -1.11247,-0.14135 -1.30067,-0.29037 -0.12696,-0.1154 -0.22585,-0.29642 -0.25112,-0.65954 v -8.89376 c 0,-0.34021 0.009,-0.58374 0.0218,-0.72847 0.0219,-0.12375 0.0705,-0.27498 0.16002,-0.45482 0.0394,-0.0754 0.11618,-0.15562 0.34291,-0.23441 0.22652,-0.0786 0.58263,-0.13443 1.04852,-0.13443 0.87739,0 1.27888,0.20839 1.34911,0.3163 l 0.005,0.005 0.005,0.008 c 0.12546,0.18327 0.10617,0.34732 0.1689,0.4944 v 1.53985 l 0.89736,-1.25358 c 0.0587,-0.082 0.1545,-0.20055 0.2774,-0.33779 l 0.005,-0.005 c 0.076,-0.0769 0.37807,-0.29007 0.84481,-0.54592 0.44063,-0.24172 0.79351,-0.33779 1.0318,-0.33779 z m -31.559858,0.0109 c 0.02335,0.22909 0.04256,0.41297 0.119422,0.54422 h 3.11381 c 0.07365,-0.1488 0.105622,-0.3344 0.121465,-0.54422 z m 0.465056,0.99256 c 0.193121,0.19826 0.421605,0.37563 0.667392,0.54456 h 1.08639 c 0.244288,-0.16893 0.47324,-0.34545 0.668076,-0.54456 z m 1.21025,2.71972 c 0.02353,0.0152 0.04746,0.0304 0.07165,0.0454 0.647446,0.40894 1.362375,0.80184 1.771523,1.47605 0.275978,0.50763 0.16891,1.1807 -0.242595,1.58556 -0.446616,0.501 -1.038563,0.8357 -1.600577,1.18875 -0.663935,-0.42242 -1.402006,-0.81638 -1.831919,-1.50129 -0.290964,-0.50935 -0.186164,-1.1971 0.231334,-1.60774 0.447259,-0.49929 1.037707,-0.83451 1.600585,-1.18671 z m -0.58039,0.74724 c -0.248359,0.16721 -0.480903,0.34356 -0.680015,0.54353 h 2.519088 c -0.19569,-0.19912 -0.43011,-0.37546 -0.681038,-0.54353 z m -1.056361,1.12801 c -0.04689,0.17899 -0.05029,0.36985 -0.0052,0.54456 h 3.279295 c 0.04668,-0.17899 0.05013,-0.36964 0.0041,-0.54456 z m 0.378735,1.12904 c 0.196543,0.1989 0.430794,0.37525 0.681722,0.54354 h 1.157358 c 0.249216,-0.16743 0.481072,-0.34379 0.681041,-0.54354 z m 33.721728,1.20001 c -0.57832,0 -1.09244,0.20877 -1.54224,0.62645 -0.4498,0.41767 -0.67456,0.94777 -0.67456,1.59034 0,0.42838 0.11255,0.81397 0.33745,1.15668 0.23025,0.33735 0.51112,0.59441 0.84311,0.77111 0.33199,0.17136 0.67497,0.25693 1.02839,0.25693 0.35341,0 0.69321,-0.0802 1.01985,-0.24089 0.33199,-0.16599 0.6132,-0.42056 0.84345,-0.76327 0.23026,-0.34806 0.3453,-0.7443 0.3453,-1.18875 0,-0.64257 -0.22226,-1.16983 -0.66671,-1.58215 -0.44444,-0.41768 -0.95574,-0.62645 -1.53404,-0.62645 z m 4.70142,0.0559 c -0.12316,0 -0.26767,0.0458 -0.43366,0.13683 -0.166,0.091 -0.27572,0.16312 -0.32927,0.21667 -0.0482,0.0535 -0.0858,0.099 -0.11259,0.13647 0,-0.091 -0.0295,-0.1791 -0.0884,-0.26477 -0.0803,-0.12315 -0.28093,-0.18493 -0.60222,-0.18493 -0.3427,0 -0.55148,0.0724 -0.62644,0.217 -0.0375,0.075 -0.0616,0.14457 -0.0723,0.20882 -0.005,0.0589 -0.008,0.1498 -0.008,0.27296 v 2.81936 0.23304 c 0.0107,0.15529 0.059,0.27033 0.14466,0.34529 0.11246,0.091 0.29709,0.13649 0.55412,0.13649 0.33735,0 0.54613,-0.0696 0.62645,-0.20882 0.0428,-0.0803 0.067,-0.14991 0.0723,-0.20882 0.0107,-0.0643 0.016,-0.15798 0.016,-0.28115 v -1.6869 c 0,-0.14458 0.0618,-0.26744 0.18494,-0.36918 0.12851,-0.10174 0.26486,-0.15286 0.40944,-0.15286 0.14457,0 0.25996,0.0217 0.34564,0.0645 0.091,0.0428 0.18442,0.0641 0.28081,0.0641 0.19277,0 0.34012,-0.1019 0.44186,-0.30537 0.10174,-0.20349 0.15251,-0.39061 0.15251,-0.56197 0,-0.17135 -0.0348,-0.29455 -0.10441,-0.36952 -0.0643,-0.0803 -0.14699,-0.13676 -0.24873,-0.1689 -0.10174,-0.0321 -0.19548,-0.0534 -0.28115,-0.0641 -0.0857,-0.0161 -0.1929,-0.0242 -0.32142,-0.0242 z m 4.1712,0.0242 c -0.20883,0 -0.36116,0.0401 -0.45755,0.12045 -0.091,0.075 -0.14464,0.18751 -0.16071,0.33744 -0.0321,-0.0482 -0.0776,-0.099 -0.13648,-0.15252 -0.0535,-0.0589 -0.15544,-0.12067 -0.30537,-0.18492 -0.14993,-0.0696 -0.31575,-0.10442 -0.49782,-0.10442 -0.46586,0 -0.89441,0.20629 -1.28531,0.6186 -0.39089,0.41232 -0.58618,0.89165 -0.58618,1.43783 0,0.54619 0.19279,1.02517 0.57833,1.43748 0.3909,0.40697 0.80845,0.61042 1.2529,0.61042 0.44445,0 0.76826,-0.13386 0.97175,-0.4016 v 0.24123 c 0,0.2249 -0.0643,0.4177 -0.19278,0.57834 -0.12852,0.16065 -0.29434,0.24089 -0.49782,0.24089 -0.29986,0 -0.57823,-0.0991 -0.83526,-0.29719 -0.0803,-0.0643 -0.15808,-0.0965 -0.23304,-0.0965 -0.075,0 -0.14207,0.0216 -0.20098,0.0645 -0.0535,0.0428 -0.13095,0.12024 -0.23269,0.23269 -0.16064,0.16064 -0.24123,0.34562 -0.24123,0.55446 0,0.16064 0.18497,0.33995 0.55445,0.53807 0.36948,0.19813 0.75757,0.29719 1.16453,0.29719 0.53547,0 1.01729,-0.1903 1.44567,-0.57049 0.42838,-0.37483 0.64283,-0.87014 0.64283,-1.48594 v -3.32501 c 0,-0.12317 -0.005,-0.2144 -0.016,-0.27331 -0.005,-0.0589 -0.0295,-0.12566 -0.0723,-0.20063 -0.0375,-0.0803 -0.10459,-0.13676 -0.20097,-0.16889 -0.0964,-0.0321 -0.24906,-0.0481 -0.45789,-0.0481 z m -8.88047,1.33342 c 0.19277,0 0.37208,0.0643 0.53807,0.19278 0.166,0.12851 0.24908,0.3238 0.24908,0.58618 0,0.26238 -0.0884,0.46051 -0.26511,0.59438 -0.17671,0.13386 -0.35352,0.20097 -0.53024,0.20097 -0.1767,0 -0.35068,-0.0643 -0.52204,-0.19278 -0.17134,-0.13387 -0.25692,-0.3295 -0.25692,-0.58653 0,-0.26238 0.0827,-0.4605 0.24874,-0.59437 0.166,-0.13387 0.34565,-0.20063 0.53842,-0.20063 z m 7.52317,0.0481 c 0.20884,0 0.375,0.0749 0.49815,0.22486 0.12317,0.14458 0.18459,0.30258 0.18459,0.47393 0,0.166 -0.0643,0.32116 -0.19277,0.46574 -0.12852,0.13922 -0.29184,0.20915 -0.48997,0.20915 -0.19277,0 -0.35859,-0.0699 -0.49782,-0.20915 -0.13386,-0.13922 -0.20097,-0.29439 -0.20097,-0.46574 0,-0.1767 0.0643,-0.3372 0.19279,-0.48178 0.12851,-0.14458 0.29717,-0.21701 0.506,-0.21701 z m -40.621543,0.86767 c -0.01757,0.0126 -0.035,0.025 -0.05255,0.0375 -0.209818,0.15887 -0.412492,0.32616 -0.577998,0.506 h 2.543326 c -0.182414,-0.19912 -0.400572,-0.37632 -0.637367,-0.54353 z m 29.941193,0.50601 c -0.30394,0.005 -0.49472,0.0853 -0.57253,0.24089 -0.0428,0.0803 -0.0695,0.1524 -0.0802,0.21666 -0.005,0.0643 -0.008,0.158 -0.008,0.28115 v 0.0321 c 0,0.2838 0.0508,0.47659 0.15252,0.57833 0.10709,0.10175 0.32154,0.15286 0.64282,0.15286 0.32664,0 0.53009,-0.0778 0.61042,-0.23304 0.0482,-0.0857 0.0748,-0.1581 0.0802,-0.217 0.0107,-0.0643 0.016,-0.16049 0.016,-0.289 v -0.0321 c 0,-0.28381 -0.0455,-0.47127 -0.13648,-0.56231 -0.12316,-0.11244 -0.34792,-0.16855 -0.67456,-0.16855 -0.01,0 -0.0202,-1.5e-4 -0.03,0 z m -30.906456,0.55616 c -0.02762,0.0752 -0.04726,0.15292 -0.05562,0.23406 -0.0025,0.0927 -0.006,0.19814 -0.02184,0.30947 h 3.375519 c -0.02441,-0.21666 -0.036,-0.40051 -0.07882,-0.54353 z" />
    <path
       d="m 118.81454,110.69332 c -0.56202,0 -1.02191,0.45989 -1.02191,1.02191 v 1.49635 l 1.13239,-0.45174 c 0.008,-0.2124 0.15543,-0.38882 0.35284,-0.44062 l 0.26184,-1.6259 z m 1.1174,0 -0.27105,1.68691 c 0.12974,0.0852 0.21581,0.23166 0.21581,0.39801 0,0.009 -0.001,0.0184 -0.002,0.0276 l 1.45954,0.81786 c 0.0809,-0.0634 0.1822,-0.10191 0.29353,-0.10191 0.26335,0 0.47659,0.21324 0.47659,0.47574 0,0.26356 -0.21324,0.4768 -0.47659,0.4768 -0.2627,0 -0.47595,-0.21324 -0.47595,-0.4768 0,-0.01 0.001,-0.0208 0.002,-0.0308 l -1.4561,-0.81637 c -0.0812,0.0653 -0.18478,0.10469 -0.29782,0.10469 -0.12868,0 -0.24579,-0.0518 -0.33186,-0.13552 l -1.27626,0.50935 v 0.93413 c 0,0.56202 0.45989,1.02127 1.02191,1.02127 h 2.84691 c 0.56288,0 1.02191,-0.45925 1.02191,-1.02127 v -2.84778 c 0,-0.56202 -0.45903,-1.0219 -1.02191,-1.0219 z"
       style="fill:#e30613;fill-opacity:1;fill-rule:nonzero;stroke:none;stroke-width:0.214102"
       id="path6384" />
    <path
       d="m 119.5397,110.69417 -0.26184,1.62505 c -0.19741,0.0527 -0.3445,0.22822 -0.35284,0.44062 l -1.13239,0.45239 h -0.001 v 0.41664 l 1.27627,-0.50935 c 0.0861,0.0837 0.20319,0.13553 0.33186,0.13553 0.11304,0 0.21667,-0.0394 0.29782,-0.10469 l 1.4561,0.81637 c -10e-4,0.0109 -0.002,0.021 -0.002,0.0317 0,0.2627 0.21325,0.47594 0.4768,0.47594 0.26249,0 0.47574,-0.21324 0.47574,-0.47594 0,-0.26335 -0.21325,-0.47659 -0.47574,-0.47659 -0.11133,0 -0.21345,0.0385 -0.29439,0.10191 l -1.45868,-0.81787 c 0,-0.009 0.001,-0.0176 0.001,-0.0268 0,-0.1672 -0.0861,-0.31365 -0.21582,-0.39886 l 0.27106,-1.68606 z"
       style="fill:#ffffff;fill-opacity:1;fill-rule:nonzero;stroke:none;stroke-width:0.214102"
       id="path6386" />
  </g>
</svg>
